<?xml version="1.0" encoding="UTF-8"?><svg version="1.1" width="32px" height="26px" viewBox="0 0 32.0 26.0" xmlns="http://www.w3.org/2000/svg" xmlns:xlink="http://www.w3.org/1999/xlink"><defs><clipPath id="i0"><path d="M1920,0 L1920,7696 L0,7696 L0,0 L1920,0 Z"></path></clipPath><clipPath id="i1"><path d="M22.1542248,0 C24.0421522,0 25.7479328,0.797387477 26.9454252,2.07345355 C28.441983,1.77812485 29.8474674,1.23176677 31.115111,0.47990913 C30.6252836,2.01315727 29.5853236,3.29906763 28.2290681,4.11122154 C29.557017,3.95248237 30.8221991,3.60054901 32,3.07757111 C31.1200338,4.39301434 30.0062305,5.54848786 28.7225876,6.47508164 C28.7348948,6.75687444 28.7410484,7.03989777 28.7410484,7.32415164 C28.7410484,15.9982015 22.1394562,26 10.0636129,26 C6.35544787,26 2.90573439,24.9134365 0,23.0516352 C0.514441752,23.113162 1.03749856,23.1439254 1.56670897,23.1439254 C4.64351371,23.1439254 7.47417407,22.094278 9.72024153,20.3333807 C6.84773663,20.2804676 4.42321449,18.3817502 3.58755432,15.7742439 C3.98753894,15.8493066 4.39983078,15.8911449 4.82196839,15.8911449 C5.42132995,15.8911449 6.00223068,15.81116 6.55236337,15.6610346 C3.54817122,15.0593024 1.28610438,12.4062663 1.28610438,9.22533012 L1.28610438,9.14288419 C2.17099342,9.63386814 3.18387754,9.92919684 4.25952848,9.96365185 C2.49836545,8.78725922 1.34025614,6.77779355 1.34025614,4.50130153 C1.34025614,3.29660656 1.663936,2.16943537 2.22760663,1.19977282 C5.46686666,5.17194377 10.3036037,7.78560273 15.7593939,8.05878177 C15.6486289,7.58010318 15.5895542,7.07804439 15.5895542,6.56368025 C15.5895542,2.93975105 18.5285181,0 22.1542248,0 Z"></path></clipPath></defs><g transform="translate(-1219.0 -454.0)"><g clip-path="url(#i0)"><g transform="translate(0.0 312.0)"><g transform="translate(522.0 83.0)"><g transform="translate(681.0 13.0)"><g transform="translate(16.0 46.0)"><g clip-path="url(#i1)"><polygon points="0,0 32,0 32,26 0,26 0,0" stroke="none" fill="#FFFFFF"></polygon></g></g></g></g></g></g></g></svg>